<ttFont>
          <CharString index="0">
            388 520 rmoveto
            99 -87 16 -41 -40 -88 -18 -98 vhcurveto
            -344 vlineto
            -100 88 -10 40 41 87 12 98 vhcurveto
            67 hmoveto
            -59 -40 -125 -156 -151 -43 125 59 -59 callsubr
            59 40 131 155 151 44 -130 -59 vhcurveto
            return
          </CharString>
          <CharString index="1">
            74 76 rmoveto
            -61 26 53 -23 49 -104 callsubr
            -64 -321 vlineto
            -36 0 -33 17 -34 vhcurveto
            return
          </CharString>
          <CharString index="2">
            -66 -10 60 165 61 173 61 hstem
            42 60 176 60 vstem
            338 141 rmoveto
            111 -69 24 -85 -32 -50 28 50 60 38 35 41 vhcurveto
            5 hlineto
            10 6 0 -24 68 hvcurveto
            25 55 -39 14 rlineto
            9 -27 -23 7 -24 hhcurveto
            -79 -61 -52 -99 -111 62 -33 97 32 45 -19 -51 -61 -33 -34 -41 -16 -19 3 6 -17 hvcurveto
            -87 35 -24 -55 86 -34 rlineto
            -11 26 26 -4 24 hhcurveto
            79 56 51 100 hvcurveto
            return
          </CharString>
          <CharString index="3">
            hhcurveto
            33 47 9 19 37 hvcurveto
            30 -30 45 45 -25 23 rlineto
            442 -63 -414 vlineto
            -15 -23 -44 -17 -38 hhcurveto
            -40 -40 34 61 hvcurveto
            351 return
          </CharString>
          <CharString index="4">
            14 -10 69 584 67 hstem
            64 68 vstem
            132 503 rmoveto
            72 57 68 67 10 15 -5 -5 13 vhcurveto
            92 -35 23 65 -84 32 rlineto
            7 -20 -30 8 -20 hhcurveto
            -47 -25 -15 -8 -15 hvcurveto
            3 1 -5 -2 -17 -11 -16 -11 -21 -25 rlinecurve
            -24 -26 -24 -56 -54 vvcurveto
            -317 vlineto
            -120 87 -76 102 19 30 6 8 22 vhcurveto
            87 31 -27 69 -32 -14 rlineto
            -26 -67 -13 -5 -19 hhcurveto
            -65 3 -58 49 80 vvcurveto
            return
          </CharString>
          <CharString index="5">
            -60 callsubr
            -699 292 71 -223 245 173 70 -173 243 221 70 vlineto
            return
          </CharString>
          <CharString index="6">
            284 243 rmoveto
            2 -48 26 -56 -41 -33 -36 -41 vhcurveto
            -62 vlineto
            -42 33 -35 40 31 74 33 0 vhcurveto
            63 -31 rmoveto
            22 -20 -45 -45 -27 27 rlineto
            -20 -41 -52 -9 -24 hhcurveto
            -77 -59 66 80 hvcurveto
            55 vlineto
            78 59 65 77 17 54 -2 -20 34 vhcurveto
            21 vlineto
            57 -43 58 -52 -18 -111 -30 0 vhcurveto
            -17 60 rlineto
            0 118 32 28 86 70 -87 -90 vhcurveto
            return
          </CharString>
          <CharString index="7">
            227 248 rmoveto
            41 33 39 42 hvcurveto
            41 vlineto
            57 -47 19 -51 -45 -41 -29 -47 vhcurveto
            -121 vlineto
            -65 116 rmoveto
            81 62 64 78 vhcurveto
            33 hlineto
            77 63 -63 -82 hvcurveto
            -32 vlineto
            -114 -87 -39 -105 -19 -18 1 2 -19 vhcurveto
            -50 vlineto
            -46 9 41 -33 47 hhcurveto
            7 127 30 0 hvcurveto
            16 -66 rlineto
            0 -136 -27 -14 -88 -74 66 93 vhcurveto
            return
          </CharString>
          <CharString index="8">
            rmoveto
            -108 135 rlineto
            -59 hlineto
            -108 -135 rlineto
            65 hlineto
            73 76 73 -76 rlineto
            endchar
          </CharString>
          <CharString index="9">
            -77 callsubr
            64 -76 callsubr
            -62 callsubr
            hintmask 00111100
            -107 callsubr
            hintmask 11000000
            return
          </CharString>
          <CharString index="10">
            -84 callsubr
            hstem
            76 69 vstem
            -102 callsubr
            return
          </CharString>
          <CharString index="11">
            -77 callsubr
            hstem
            -62 callsubr
            vstem
            -107 callsubr
            return
          </CharString>
          <CharString index="12">
            rmoveto
            88 -70 -88 vlineto
            -122 hmoveto
            88 -70 -88 vlineto
            endchar
          </CharString>
          <CharString index="13">
            3 -8 62 446 -20 hstem
            57 64 185 63 vstem
            -106 callsubr
            return
          </CharString>
          <CharString index="14">
            rmoveto
            -103 157 rlineto
            -77 hlineto
            113 -157 rlineto
            endchar
          </CharString>
          <CharString index="15">
            306 358 rmoveto
            79 -65 11 -32 -33 -66 -11 -79 vhcurveto
            -211 vlineto
            -79 66 -13 33 32 65 13 79 vhcurveto
            58 -7 rmoveto
            -125 -105 -21 -50 -51 -105 21 125 vhcurveto
            225 vlineto
            125 105 20 51 50 105 -20 -125 vhcurveto
            return
          </CharString>
          <CharString index="16">
            358 425 rmoveto
            61 -26 -59 23 -60 hhcurveto
            -32 -33 -9 -19 -35 hvcurveto
            -31 30 -44 -45 24 -23 rlineto
            -443 63 415 vlineto
            30 46 36 2 23 hhcurveto
            40 39 -34 -61 hvcurveto
            -352 65 322 vlineto
            36 0 33 -16 34 vhcurveto
            return
          </CharString>
          <CharString index="17">
            rmoveto
            -77 hlineto
            -103 -157 rlineto
            67 hlineto
            endchar
          </CharString>
          <CharString index="18">
            rmoveto
            108 -135 rlineto
            59 hlineto
            108 135 rlineto
            -65 hlineto
            -73 -76 -73 76 rlineto
            endchar
          </CharString>
          <CharString index="19">
            -76 callsubr
            76 69 hintmask 10011100
            -102 callsubr
            hintmask 01100000
            return
          </CharString>
          <CharString index="20">
            vhcurveto
            50 vlineto
            -2 19 18 -1 19 hhcurveto
            105 87 39 114 hvcurveto
            32 vlineto
            82 return
          </CharString>
          <CharString index="21">
            637 rmoveto
            58 -70 -57 vlineto
            -45 -21 -80 callsubr
            -128 hmoveto
            58 -70 -57 vlineto
            -45 -20 -20 return
          </CharString>
          <CharString index="22">
            415 700 rmoveto
            -619 -2 vlineto
            -255 619 rlineto
            -82 -700 64 571 1 hlineto
            233 -571 rlineto
            106 700 hlineto
            return
          </CharString>
          <CharString index="23">
            -17 1 71 245 70 243 70 return
          </CharString>
          <CharString index="24">
            -82 callsubr
            hstem
            return
          </CharString>
          <CharString index="25">
            21 -21 700 -20 return
          </CharString>
          <CharString index="26">
            -47 -41 33 46 -9 -87 callsubr
            -63 63 -77 vhcurveto
            return
          </CharString>
          <CharString index="27">
            -53 callsubr
            57 -61 callsubr
            return
          </CharString>
          <CharString index="28">
            76 hlineto
            47 30 14 32 vhcurveto
            19 66 -24 hlineto
            -68 -53 -39 -95 hvcurveto
            -69 -86 -61 85 -439 66 return
          </CharString>
          <CharString index="29">
            rmoveto
            58 -60 -57 vlineto
            -43 -16 -30 -24 -11 vhcurveto
            36 -46 rlineto
            39 19 25 36 74 vvcurveto
            endchar
          </CharString>
          <CharString index="30">
            93 -9 74 570 74 return
          </CharString>
          <CharString index="31">
            -21 100 -20 hstemhm
            return
          </CharString>
          <CharString index="32">
            21 -21 500 -20 return
          </CharString>
          <CharString index="33">
            -70 callsubr
            hstem
            52 65 184 64 vstem
            return
          </CharString>
          <CharString index="34">
            -68 hlineto
            -135 -316 rlineto
            0 vlineto
            -135 316 rlineto
            -68 hlineto
            return
          </CharString>
          <CharString index="35">
            -20 -21 -22 -10 -51 callsubr
            57 23 37 47 75 vvcurveto
            endchar
          </CharString>
          <CharString index="36">
            -24 -10 65 216 63 114 62 return
          </CharString>
          <CharString index="37">
            -19 -9 63 126 68 198 64 return
          </CharString>
          <CharString index="38">
            312 rmoveto
            101 -81 -101 vlineto
            80 -311 rmoveto
            -52 callsubr
            return
          </CharString>
          <CharString index="39">
            71 hstem
            75 66 253 69 vstem
            244 639 rmoveto
            88 62 return
          </CharString>
          <CharString index="40">
            0 -74 -33 -31 -40 -33 35 42 vhcurveto
            62 vlineto
            41 33 36 41 return
          </CharString>
          <CharString index="41">
            rmoveto
            121 vlineto
            47 41 29 45 51 47 -19 -57 vhcurveto
            -41 vlineto
            return
          </CharString>
          <CharString index="42">
            rmoveto
            31 -62 rlineto
            278 hlineto
            hintmask 00100000
            -28 62 rlineto
            endchar
          </CharString>
          <CharString index="43">
            rmoveto
            76 -347 -76 vlineto
            return
          </CharString>
          <CharString index="44">
            hstem
            76 69 vstem
            76 return
          </CharString>
          <CharString index="45">
            65 67 256 67 return
          </CharString>
          <CharString index="46">
            24 37 46 75 vvcurveto
            return
          </CharString>
          <CharString index="47">
            76 700 rmoveto
            return
          </CharString>
          <CharString index="48">
            vhcurveto
            344 vlineto
            return
          </CharString>
          <CharString index="49">
            57 45 38 53 33 58 -21 0 vhcurveto
            16 55 rlineto
            0 return
          </CharString>
          <CharString index="50">
            -75 callsubr
            100 -21 100 -20 56 -20 hstemhm
            61 return
          </CharString>
          <CharString index="51">
            -98 -87 -12 -41 -40 -88 10 100 -59 callsubr
            return
          </CharString>
          <CharString index="52">
            1 rmoveto
            72 hlineto
            100 693 rlineto
            -72 hlineto
            endchar
          </CharString>
          <CharString index="53">
            513 -21 203 -20 hstem
            return
          </CharString>
          <CharString index="54">
            -20 -22 -11 -51 callsubr
            return
          </CharString>
          <CharString index="55">
            99 -81 -99 vlineto
            return
          </CharString>
          <CharString index="56">
            vhcurveto
            19 -70 rlineto
            return
          </CharString>
          <CharString index="57">
            -231 22 -21 694 -20 hstem
            66 64 vstem
            return
          </CharString>
          <CharString index="58">
            vstem
            -60 callsubr
            return
          </CharString>
          <CharString index="59">
            rlineto
            0 -68 -19 -23 -53 -46 38 59 vhcurveto
            return
          </CharString>
          <CharString index="60">
            81 vstem
            135 5 rmoveto
            -52 callsubr
            return
          </CharString>
          <CharString index="61">
            -70 rlineto
            56 -61 callsubr
            endchar
          </CharString>
          <CharString index="62">
            -10 -6 61 393 62 return
          </CharString>
          <CharString index="63">
            -20 -125 vhcurveto
            -225 vlineto
            -125 return
          </CharString>
          <CharString index="64">
            160 196 vhcurveto
            -62 hmoveto
            -163 return
          </CharString>
          <CharString index="65">
            98 88 18 40 41 87 -16 -99 vhcurveto
            return
          </CharString>
          <CharString index="66">
            80 hvcurveto
            230 vlineto
            79 -60 65 -76 return
          </CharString>
          <CharString index="67">
            61 500 rmoveto
            65 -500 -65 hlineto
            return
          </CharString>
          <CharString index="68">
            61 137 66 -8 -20 hstemhm
            111 return
          </CharString>
          <CharString index="69">
            hstem
            52 62 178 63 vstem
            292 return
          </CharString>
          <CharString index="70">
            hvcurveto
            -237 vlineto
            -42 -33 -35 -40 return
          </CharString>
          <CharString index="71">
            79 vhcurveto
            211 vlineto
            79 66 11 return
          </CharString>
          <CharString index="72">
            -90 hvcurveto
            -102 265 hlineto
            0 60 return
          </CharString>
          <CharString index="73">
            61 -75 vhcurveto
            -32 hlineto
            -76 -60 -61 return
          </CharString>
          <CharString index="74">
            -131 -59 vhcurveto
            -344 vlineto
            -59 return
          </CharString>
          <CharString index="75">
            -222 -21 233 64 392 return
          </CharString>
          <CharString index="76">
            -95 53 -39 68 vhcurveto
            return
          </CharString>
          <CharString index="77">
            -21 202 -20 hstem
            return
          </CharString>
          <CharString index="78">
            53 57 196 58 return
          </CharString>
          <CharString index="79">
            44 62 179 61 return
          </CharString>
          <CharString index="80">
            -41 -32 35 43 hvcurveto
            return
          </CharString>
          <CharString index="81">
            -43 -33 -35 -40 vhcurveto
            return
          </CharString>
          <CharString index="82">
            194 endchar
          </CharString>
          <CharString index="83">
            200 endchar
          </CharString>
          <CharString index="84">
            195 endchar
          </CharString>
        <CharString name=".notdef">
          73 endchar
        </CharString>
        <CharString name=".null">
          -427 endchar
        </CharString>
        <CharString name="A">
          36 21 -21 191 72 437 -20 hstem
          310 264 rmoveto
          -157 hlineto
          26 121 27 117 26 121 rrcurveto
          1 hlineto
          -98 -431 rmoveto
          193 hlineto
          44 -191 rlineto
          67 hlineto
          -160 700 rlineto
          -95 hlineto
          -160 -700 rlineto
          68 hlineto
          endchar
        </CharString>
        <CharString name="AE">
          306 1 71 -51 -21 191 72 54 70 243 70 hstemhm
          hintmask 01111000
          361 623 rmoveto
          14 13 -1 13 hhcurveto
          -121 -1 -118 -120 vvcurveto
          -68 -63 1 -69 hhcurveto
          132 436 rmoveto
          hintmask 10111000
          -321 -699 rlineto
          68 hlineto
          87 191 rlineto
          234 -191 291 71 -224 245 174 70 -174 243 222 70 hlineto
          endchar
        </CharString>
        <CharString name="Aacute">
          36 4 200 65 -25 callsubr
        </CharString>
        <CharString name="Acircumflex">
          36 36 200 65 -23 callsubr
        </CharString>
        <CharString name="Adieresis">
          36 3 200 65 -24 callsubr
        </CharString>
        <CharString name="Agrave">
          36 -8 200 65 193 endchar
        </CharString>
        <CharString name="Atilde">
          36 -15 200 65 196 endchar
        </CharString>
        <CharString name="B">
          49 0 71 250 70 248 71 hstemhm
          75 69 189 74 -51 71 hintmask 11110100
          261 321 rmoveto
          73 22 -58 -70 -67 -22 -55 -73 hvcurveto
          -117 250 hlineto
          189 193 rmoveto
          -67 -21 -56 -74 vhcurveto
          -94 226 hlineto
          21 51 25 1 13 hhcurveto
          hintmask 11111000
          65 30 -62 -63 5 hvcurveto
          -92 196 rmoveto
          -17 -20 -2 -4 -18 hvcurveto
          -16 -3 -43 -11 -52 -20 rrcurveto
          -670 186 vlineto
          55 35 21 23 24 hvcurveto
          hintmask 11110100
          11 8 43 59 -2 82 rrcurveto
          63 -9 52 -69 48 vhcurveto
          53 46 5 57 59 vvcurveto
          77 -42 65 -48 29 vhcurveto
          0 -1 0 1 vvcurveto
          6 -9 -22 14 -44 hhcurveto
          endchar
        </CharString>
        <CharString name="C">
          -103 callsubr
          endchar
        </CharString>
        <CharString name="CR">
          73 endchar
        </CharString>
        <CharString name="Ccedilla">
          -103 callsubr
          149 -280 -78 callsubr
        </CharString>
        <CharString name="D">
          50 -10 72 577 71 hstem
          69 68 203 73 vstem
          69 28 rmoveto
          -36 92 35 -2 21 hhcurveto
          103 93 85 113 hvcurveto
          316 vlineto
          111 -79 95 -106 -19 -56 -7 -34 -84 vhcurveto
          271 -165 rmoveto
          56 -31 44 -29 20 vhcurveto
          11 -15 -22 4 -15 hhcurveto
          -28 -35 -14 -12 -28 hvcurveto
          -531 vlineto
          -19 47 24 -1 13 hhcurveto
          4 hlineto
          61 56 64 71 hvcurveto
          endchar
        </CharString>
        <CharString name="E">
          -97 callsubr
          endchar
        </CharString>
        <CharString name="Eacute">
          -84 callsubr
          67 -88 callsubr
          -19 225 -90 callsubr
        </CharString>
        <CharString name="Ecircumflex">
          -97 callsubr
          -33 109 -99 callsubr
        </CharString>
        <CharString name="Edieresis">
          -97 callsubr
          -19 84 -95 callsubr
        </CharString>
        <CharString name="Egrave">
          -84 callsubr
          73 -88 callsubr
          -115 73 -93 callsubr
        </CharString>
        <CharString name="Euro">
          39 -9 65 114 76 114 76 149 66 hstem
          88 64 177 63 vstem
          414 172 rmoveto
          -63 -29 hlineto
          -26 callsubr
          -31 hlineto
          -27 callsubr
          100 149 57 -149 60 149 56 -149 103 vlineto
          57 44 17 49 44 40 -26 -48 vhcurveto
          -29 63 29 vlineto
          80 -60 -34 callsubr
          -80 hvcurveto
          -103 -70 -56 70 -60 -70 -57 70 -103 vlineto
          -80 59 -60 76 vhcurveto
          32 hlineto
          76 60 60 80 hvcurveto
          endchar
        </CharString>
        <CharString name="F">
          -36 21 -21 317 69 244 70 hstem
          76 69 -49 callsubr
          -700 69 317 173 69 -173 244 221 70 vlineto
          endchar
        </CharString>
        <CharString name="G">
          22 -10 67 581 72 hstem
          64 69 196 69 vstem
          133 506 rmoveto
          70 54 62 65 10 13 -3 -7 16 vhcurveto
          76 -29 24 70 -68 26 -21 8 -30 6 -20 1 rlinecurve
          -110 -73 -78 -126 -5 hvcurveto
          -312 vlineto
          -111 77 -93 109 19 50 6 42 79 vhcurveto
          232 -69 -189 vlineto
          -22 -44 -19 -2 -13 hhcurveto
          -63 -57 55 68 hvcurveto
          endchar
        </CharString>
        <CharString name="H">
          89 22 -21 317 71 311 -20 hstem
          -60 callsubr
          -699 69 317 225 -317 70 699 -70 -311 -225 311 vlineto
          endchar
        </CharString>
        <CharString name="I">
          -83 callsubr
          76 65 vstem
          76 hmoveto
          65 700 -65 hlineto
          endchar
        </CharString>
        <CharString name="Iacute">
          -112 200 73 -25 callsubr
        </CharString>
        <CharString name="Icircumflex">
          -87 200 73 -23 callsubr
        </CharString>
        <CharString name="Idieresis">
          -83 callsubr
          76 65 -49 callsubr
          65 -700 -65 hlineto
          162 784 -95 callsubr
        </CharString>
        <CharString name="Igrave">
          -123 200 73 193 endchar
        </CharString>
        <CharString name="J">
          -115 -10 73 637 -20 hstem
          168 68 vstem
          236 140 rmoveto
          560 -68 -567 vlineto
          -61 -28 -9 -30 -5 -64 6 4 -14 vhcurveto
          -13 -72 rlineto
          -6 21 67 -5 11 hhcurveto
          104 19 35 115 hvcurveto
          endchar
        </CharString>
        <CharString name="K">
          -31 -83 callsubr
          76 68 vstem
          374 hmoveto
          -151 348 153 350 rlineto
          -75 hlineto
          -47 -103 -47 -107 -47 -103 rrcurveto
          -16 315 -68 -700 68 313 17 hlineto
          138 -313 rlineto
          endchar
        </CharString>
        <CharString name="L">
          -47 0 69 631 -20 -63 callsubr
          hmoveto
          287 69 -218 631 -69 hlineto
          endchar
        </CharString>
        <CharString name="Lslash">
          -39 0 69 136 67 428 -20 hstem
          365 70 rmoveto
          -217 136 215 67 -215 427 -70 -427 -67 -67 67 -205 287 hlineto
          endchar
        </CharString>
        <CharString name="M">
          182 -83 callsubr
          76 66 325 66 vstem
          302 274 rmoveto
          -128 426 rlineto
          -98 -700 66 569 hlineto
          114 -367 rlineto
          95 hlineto
          115 369 rlineto
          1 -571 66 700 -97 hlineto
          -130 -426 rlineto
          endchar
        </CharString>
        <CharString name="N">
          129 -83 callsubr
          76 64 275 65 vstem
          -85 callsubr
          endchar
        </CharString>
        <CharString name="Ntilde">
          129 -82 callsubr
          109 62 hstemhm
          76 64 275 65 hintmask 11011000
          -85 callsubr
          -358 151 -65 callsubr
        </CharString>
        <CharString name="O">
          -77 callsubr
          hstem
          -62 callsubr
          vstem
          388 175 rmoveto
          -56 callsubr
          -42 callsubr
          67 hmoveto
          59 -44 130 -151 -155 -40 -33 callsubr
          43 -125 151 156 40 125 59 vhcurveto
          endchar
        </CharString>
        <CharString name="OE">
          294 1 80 245 71 243 70 9 -20 hstemhm
          65 67 255 70 -70 242 hintmask 11101100
          261 75 rmoveto
          -41 -88 10 99 hvcurveto
          344 vlineto
          98 88 19 41 37 80 -15 -84 9 vhcurveto
          -377 vlineto
          -76 -15 -75 -18 -36 hhcurveto
          418 -64 rmoveto
          70 -222 245 vlineto
          hintmask 11101010
          172 71 hlineto
          hintmask 11101100
          -172 243 220 70 -290 -35 hlineto
          hintmask 11011100
          26 -30 -40 18 -56 hhcurveto
          -155 -41 -131 -60 hvcurveto
          -343 vlineto
          -60 44 -124 151 55 42 17 22 30 vhcurveto
          -29 vlineto
          endchar
        </CharString>
        <CharString name="Oacute">
          -98 callsubr
          -46 411 -90 callsubr
        </CharString>
        <CharString name="Ocircumflex">
          -96 callsubr
          -58 289 -99 callsubr
        </CharString>
        <CharString name="Odieresis">
          -96 callsubr
          -61 264 -95 callsubr
        </CharString>
        <CharString name="Ograve">
          -98 callsubr
          -153 253 -93 callsubr
        </CharString>
        <CharString name="Oslash">
          94 -9 74 -43 -21 634 74 -10 -20 hstemhm
          56 66 256 68 hintmask 01011100
          388 175 rmoveto
          hintmask 01101100
          -56 callsubr
          hintmask 10011100
          -42 callsubr
          68 -345 rmoveto
          345 vlineto
          hintmask 01101100
          59 -45 130 -151 -154 -41 -33 callsubr
          44 -125 150 156 41 125 59 vhcurveto
          -171 590 rmoveto
          -122 -830 rlineto
          73 hlineto
          122 830 rlineto
          endchar
        </CharString>
        <CharString name="Otilde">
          93 15 200 79 196 endchar
        </CharString>
        <CharString name="P">
          66 21 -21 280 71 288 -68 callsubr
          -42 -97 -98 -60 -51 -35 callsubr
          23 42 vhcurveto
          8 71 rmoveto
          -83 -94 -41 0 hvcurveto
          -669 66 280 110 vlineto
          121 91 91 129 127 -100 83 -111 hvcurveto
          endchar
        </CharString>
        <CharString name="Q">
          92 -80 -21 93 73 573 71 hstem
          65 69 252 69 vstem
          386 175 rmoveto
          -100 -86 -10 -40 -39 -87 10 100 -59 callsubr
          98 87 21 39 40 86 -22 -98 vhcurveto
          69 hmoveto
          59 -44 132 -151 -155 -40 -132 -59 vhcurveto
          -343 vlineto
          -56 40 -114 133 -13 vhcurveto
          13 -44 33 -31 43 -18 19 73 rcurveline
          -14 6 -10 8 -7 11 rrcurveto
          103 28 37 99 51 vvcurveto
          endchar
        </CharString>
        <CharString name="R">
          79 21 -21 281 71 287 -68 callsubr
          -35 -97 -99 -60 -56 -35 callsubr
          22 42 vhcurveto
          109 -337 rmoveto
          65 32 45 85 88 vvcurveto
          128 -100 75 -111 -81 -96 -41 0 vhcurveto
          -669 66 281 110 vlineto
          11 13 1 1 10 hvcurveto
          122 -283 rlineto
          68 hlineto
          endchar
        </CharString>
        <CharString name="S">
          40 1 72 566 71 hstem
          52 69 252 70 vstem
          443 208 rmoveto
          111 -87 47 -110 19 vhcurveto
          -54 10 -71 37 77 vvcurveto
          67 52 63 67 52 79 -33 0 vhcurveto
          22 68 rlineto
          0 -87 36 -64 -104 -86 -93 -111 -109 82 -66 100 -16 vhcurveto
          61 -10 78 -25 -74 vvcurveto
          -74 -54 -59 -70 -66 -120 62 0 vhcurveto
          -24 -66 rlineto
          0 107 -68 104 109 84 94 113 vhcurveto
          endchar
        </CharString>
        <CharString name="Scaron">
          40 51 200 83 207 endchar
        </CharString>
        <CharString name="T">
          -5 21 -21 631 69 hstem
          173 69 vstem
          404 700 rmoveto
          -386 -67 162 -633 67 633 157 hlineto
          endchar
        </CharString>
        <CharString name="Thorn">
          4 -223 -21 237 62 395 64 186 -20 hstem
          75 64 180 63 vstem
          139 420 rmoveto
          19 30 47 11 28 hhcurveto
          41 34 -35 -43 hvcurveto
          -239 vlineto
          -42 -34 -36 -40 -38 -33 8 17 -35 vhcurveto
          -1 620 rmoveto
          -62 hlineto
          -1 -944 rlineto
          62 259 hlineto
          -19 43 38 -3 26 hhcurveto
          77 61 64 80 hvcurveto
          232 vlineto
          79 -61 66 -77 -20 -35 2 -26 -51 vhcurveto
          endchar
        </CharString>
        <CharString name="U">
          107 -7 63 645 -20 hstem
          74 65 257 64 vstem
          267 56 rmoveto
          -51 -77 22 98 hvcurveto
          525 -65 -525 vlineto
          -78 44 -105 149 150 43 105 78 vhcurveto
          525 -64 -525 vlineto
          -98 -83 -22 -46 vhcurveto
          endchar
        </CharString>
        <CharString name="Uacute">
          107 34 200 85 -25 callsubr
        </CharString>
        <CharString name="Ucircumflex">
          107 72 200 85 -23 callsubr
        </CharString>
        <CharString name="Udieresis">
          107 36 200 85 -24 callsubr
        </CharString>
        <CharString name="Ugrave">
          107 44 200 85 193 endchar
        </CharString>
        <CharString name="V">
          32 -83 callsubr
          368 700 rmoveto
          0 -126 -566 -11 -56 vhcurveto
          -2 hlineto
          -137 622 rlineto
          -68 hlineto
          157 -700 rlineto
          95 hlineto
          161 700 rlineto
          endchar
        </CharString>
        <CharString name="W">
          182 15 -20 705 -20 hstem
          379 1 rmoveto
          97 hlineto
          101 699 rlineto
          -64 hlineto
          -90 -622 -75 354 rlineto
          -86 hlineto
          -80 -354 -86 622 rlineto
          -65 hlineto
          102 -699 rlineto
          96 hlineto
          76 346 rlineto
          endchar
        </CharString>
        <CharString name="X">
          22 -83 callsubr
          227 312 rmoveto
          131 -312 rlineto
          69 hlineto
          -145 347 146 353 rlineto
          -73 callsubr
          146 -353 -146 -347 rlineto
          68 hlineto
          131 312 rlineto
          endchar
        </CharString>
        <CharString name="Y">
          3 -83 callsubr
          182 65 vstem
          418 700 rmoveto
          -73 callsubr
          162 -388 rlineto
          8 -312 65 312 11 hlineto
          endchar
        </CharString>
        <CharString name="Yacute">
          3 -82 callsubr
          93 -76 callsubr
          182 65 hintmask 00111000
          258 312 rmoveto
          -11 -312 -65 312 -8 hlineto
          -162 388 rlineto
          68 hlineto
          135 -316 rlineto
          0 vlineto
          135 316 rlineto
          68 hlineto
          hintmask 11000000
          -64 231 -90 callsubr
        </CharString>
        <CharString name="Ydieresis">
          3 -8 200 89 -24 callsubr
        </CharString>
        <CharString name="Z">
          31 0 72 556 72 hstem
          32 73 rmoveto
          -73 395 72 -309 0 vlineto
          293 563 rlineto
          65 -357 -72 271 0 vlineto
          endchar
        </CharString>
        <CharString name="Zcaron">
          31 0 72 556 72 hstem
          325 628 rmoveto
          0 -271 72 357 -65 vlineto
          -293 -563 rlineto
          0 309 -72 -395 73 vlineto
          59 870 -89 callsubr
        </CharString>
        <CharString name="_0004">
          -427 endchar
        </CharString>
        <CharString name="a">
          -71 callsubr
          hstem
          -28 callsubr
          vstem
          284 88 rmoveto
          -67 callsubr
          56 48 -26 -2 vhcurveto
          62 90 rmoveto
          90 -70 87 -86 -28 -118 -32 0 vhcurveto
          17 -60 rlineto
          0 111 30 18 52 43 -58 -57 vhcurveto
          -21 vlineto
          20 -34 -54 2 -17 hhcurveto
          -77 -59 -65 -78 hvcurveto
          -55 vlineto
          -80 59 -66 77 24 52 9 20 41 vhcurveto
          27 -27 45 45 -22 20 rlineto
          endchar
        </CharString>
        <CharString name="aacute">
          -24 -29 0 97 -25 callsubr
        </CharString>
        <CharString name="acircumflex">
          -24 10 0 97 -23 callsubr
        </CharString>
        <CharString name="acute">
          36 573 -21 100 -20 hstem
          371 731 -90 callsubr
        </CharString>
        <CharString name="adieresis">
          -71 callsubr
          hstem
          -28 callsubr
          vstem
          -101 callsubr
          -17 251 -95 callsubr
        </CharString>
        <CharString name="ae">
          212 -10 65 -43 -21 189 69 22 63 112 64 hstemhm
          44 63 177 64 184 64 hintmask 10111111
          301 24 rmoveto
          24 16 rlineto
          hintmask 01111111
          -24 23 51 -25 46 hhcurveto
          14 136 27 0 hvcurveto
          -16 66 rlineto
          0 -127 -30 -7 -47 -40 33 46 -10 -87 callsubr
          -62 63 -78 vhcurveto
          -33 hlineto
          -50 -40 -23 -40 -25 hvcurveto
          38 -28 -42 25 -48 hhcurveto
          -27 -119 -32 0 hvcurveto
          18 -60 rlineto
          0 111 30 17 47 38 -51 -52 9 vhcurveto
          -32 vlineto
          20 -34 -52 1 -17 hhcurveto
          -77 -60 -65 -78 hvcurveto
          -55 vlineto
          -80 60 -66 77 27 50 8 26 43 vhcurveto
          -120 247 rmoveto
          47 43 -23 -8 13 hvcurveto
          -90 vlineto
          -7 0 -8 1 -6 vhcurveto
          -41 vlineto
          hintmask 10111111
          -67 callsubr
          vhcurveto
          167 -22 -66 callsubr
          -43 -33 -39 -43 2 vhcurveto
          endchar
        </CharString>
        <CharString name="agrave">
          -71 callsubr
          63 -76 callsubr
          -28 callsubr
          hintmask 10011110
          -101 callsubr
          hintmask 01100000
          -102 240 -93 callsubr
        </CharString>
        <CharString name="ampersand">
          171 -9 66 -36 -21 648 60 hstemhm
          29 67 -16 65 213 63 49 60 hintmask 10110110
          402 131 rmoveto
          -44 -38 -53 -30 -71 hhcurveto
          -79 -65 54 83 48 27 34 44 27 hvcurveto
          -1 hlineto
          16 8 17 12 16 9 rrcurveto
          255 31 rmoveto
          -76 -5 -57 -25 -49 vhcurveto
          -172 184 66 39 rlineto
          54 32 33 42 70 vvcurveto
          98 -77 62 -95 vhcurveto
          hintmask 01110110
          -98 -71 -71 -89 -46 15 -35 34 -38 hvcurveto
          45 -50 -17 -10 -14 -8 -17 -10 rlinecurve
          -60 -36 -37 -51 -71 vvcurveto
          hintmask 10110110
          -123 94 -79 117 87 71 38 55 50 vhcurveto
          67 -84 rlineto
          hintmask 10101110
          79 hlineto
          -34 41 -44 49 -35 41 39 60 9 97 1 75 rrcurveto
          -172 185 rmoveto
          -38 -24 -31 -34 -23 vhcurveto
          -72 -45 rlineto
          -70 83 -13 23 31 vvcurveto
          61 47 39 57 62 47 -39 -61 vhcurveto
          165 -537 rmoveto
          -10 -8 -71 86 10 8 rlineto
          endchar
        </CharString>
        <CharString name="asciitilde">
          30 220 58 -11 58 hstemhm
          hintmask 10000000
          374 317 rmoveto
          -34 -34 -13 -5 -22 hhcurveto
          -25 -23 11 12 -24 hvcurveto
          hintmask 01000000
          11 -25 -25 13 -29 hhcurveto
          -38 -25 -11 -51 -51 hvcurveto
          42 -35 rlineto
          34 34 14 5 22 hhcurveto
          25 25 -12 -11 24 hvcurveto
          hintmask 10000000
          -12 27 25 -12 25 hhcurveto
          38 25 11 51 52 hvcurveto
          endchar
        </CharString>
        <CharString name="asterisk">
          -24 180 -21 134 77 133 -20 hstem
          122 77 vstem
          354 265 rmoveto
          -32 17 -38 20 -33 18 104 56 rcurveline
          -27 48 -102 -60 3 118 rlineto
          -56 hlineto
          2 -117 -99 59 -28 -48 103 -56 -103 -56 28 -49 100 61 -3 -117 rlineto
          56 hlineto
          -3 117 102 -61 rlineto
          endchar
        </CharString>
        <CharString name="at">
          426 -67 58 137 54 288 55 152 58 hstem
          43 61 144 61 219 61 165 60 vstem
          814 397 rmoveto
          212 -163 126 -203 -244 -161 -169 -242 -219 151 -172 225 90 77 12 37 88 vhcurveto
          60 vlineto
          -36 -83 -84 -15 -86 hhcurveto
          -188 -129 149 184 207 134 146 210 170 136 -101 -179 -107 -44 -108 -84 -30 -17 25 37 hvcurveto
          9 vlineto
          20 264 rlineto
          -49 hlineto
          -10 -43 rlineto
          34 -22 -41 17 -41 hhcurveto
          -120 -68 -110 -109 -95 55 -83 104 45 51 28 37 28 hvcurveto
          -41 13 34 -26 43 hhcurveto
          133 60 147 124 hvcurveto
          -286 -50 rmoveto
          -71 -34 -93 -85 -67 -33 54 69 77 42 87 78 73 26 -59 -64 vhcurveto
          endchar
        </CharString>
        <CharString name="atilde">
          -24 -43 0 97 196 endchar
        </CharString>
        <CharString name="b">
          -9 -8 63 391 64 185 -20 hstem
          61 64 178 62 vstem
          125 416 rmoveto
          20 30 53 10 21 hhcurveto
          41 33 -35 -42 -37 callsubr
          -23 -73 12 19 -9 vhcurveto
          -1 609 rmoveto
          -63 -635 hlineto
          -21 -22 44 -44 7 6 11 13 9 7 rlinecurve
          -22 44 46 -6 28 hhcurveto
          76 60 64 -41 callsubr
          -21 -34 2 -26 -50 vhcurveto
          endchar
        </CharString>
        <CharString name="backslash">
          -37 -34 -21 816 -20 hstem
          362 -55 rmoveto
          -267 816 rlineto
          -67 hlineto
          268 -816 rlineto
          endchar
        </CharString>
        <CharString name="bar">
          -233 11 -21 705 -20 hstem
          66 62 vstem
          128 -10 rmoveto
          705 -62 -705 vlineto
          endchar
        </CharString>
        <CharString name="braceleft">
          -190 -72 61 716 62 hstemhm
          61 62 -62 146 hintmask 11010000
          207 -72 rmoveto
          61 -24 vlineto
          -28 -13 0 9 -8 hvcurveto
          hintmask 11100000
          -9 9 -2 16 30 vvcurveto
          585 vlineto
          29 2 20 9 9 vhcurveto
          9 8 13 0 28 hhcurveto
          hintmask 11010000
          24 62 -29 hlineto
          -46 -27 -10 -18 -17 hvcurveto
          -20 -19 -7 -24 -46 vvcurveto
          -605 vlineto
          -47 7 -23 20 -20 vhcurveto
          -17 17 27 -10 46 hhcurveto
          endchar
        </CharString>
        <CharString name="braceright">
          -184 -70 61 716 61 hstemhm
          31 151 -63 63 hintmask 11100000
          182 47 rmoveto
          605 vlineto
          46 -8 24 -20 19 vhcurveto
          18 -18 -27 9 -46 hhcurveto
          -32 -61 27 hlineto
          28 13 0 -9 9 hvcurveto
          hintmask 11010000
          8 -8 3 -17 -29 vvcurveto
          -590 vlineto
          -30 -3 -16 -8 -9 vhcurveto
          -7 -7 -11 -1 -19 hhcurveto
          hintmask 11100000
          -40 -61 32 hlineto
          46 27 10 17 18 hvcurveto
          20 20 8 23 47 vvcurveto
          endchar
        </CharString>
        <CharString name="bracketleft">
          -185 -82 62 728 61 hstemhm
          63 62 -62 149 hintmask 11010000
          212 -82 rmoveto
          62 vlineto
          hintmask 11100000
          -87 728 hlineto
          hintmask 11010000
          87 61 -149 -851 hlineto
          endchar
        </CharString>
        <CharString name="bracketright">
          -185 -83 62 728 61 hstemhm
          30 149 -62 62 hintmask 11100000
          179 -83 rmoveto
          851 -149 -61 vlineto
          hintmask 11010000
          87 -728 hlineto
          hintmask 11100000
          -87 -62 hlineto
          endchar
        </CharString>
        <CharString name="brokenbar">
          -231 398 -21 318 -20 hstem
          66 64 vstem
          66 377 rmoveto
          64 318 -64 hlineto
          -695 vmoveto
          64 317 -64 hlineto
          endchar
        </CharString>
        <CharString name="bullet">
          -130 139 216 hstem
          41 215 vstem
          256 247 rmoveto
          59 -49 49 -59 -59 -48 -49 -59 -59 48 -49 59 59 49 49 59 vhcurveto
          endchar
        </CharString>
        <CharString name="c">
          -78 -8 62 395 62 hstem
          52 62 vstem
          114 354 rmoveto
          -58 callsubr
          -65 28 -42 -89 -71 -65 -92 vhcurveto
          -203 vlineto
          -93 72 -66 89 40 70 23 0 vhcurveto
          -19 58 -48 callsubr
          endchar
        </CharString>
        <CharString name="caron">
          -26 629 -21 135 -20 hstem
          58 743 -89 callsubr
        </CharString>
        <CharString name="ccedilla">
          -78 3 0 99 203 endchar
        </CharString>
        <CharString name="cedilla">
          -33 -197 -21 187 -20 hstem
          177 60 vstem
          237 -89 -78 callsubr
        </CharString>
        <CharString name="cent">
          -71 -8 62 395 62 hstem
          49 62 vstem
          165 507 rmoveto
          -65 -19 -52 -57 -76 vvcurveto
          -203 vlineto
          -74 54 -60 63 -20 vhcurveto
          -125 62 121 vlineto
          38 3 50 21 0 vvcurveto
          -15 56 -48 callsubr
          203 vlineto
          -58 callsubr
          -49 20 -39 6 vhcurveto
          123 -62 vlineto
          endchar
        </CharString>
        <CharString name="circumflex">
          -31 630 -21 135 -20 hstem
          332 609 -99 callsubr
        </CharString>
        <CharString name="colon">
          -229 1 99 212 101 hstem
          59 81 vstem
          140 -69 callsubr
          endchar
        </CharString>
        <CharString name="comma">
          -247 -70 -30 callsubr
          57 71 vstem
          128 54 rmoveto
          57 -71 -57 vlineto
          -44 -72 callsubr
        </CharString>
        <CharString name="copyright">
          364 -10 63 -63 168 388 156 -62 62 hstemhm
          40 62 587 62 hintmask 10011100
          751 346 rmoveto
          197 -158 159 -197 -196 -160 -159 -197 -196 160 -160 196 197 158 -43 callsubr
          -131 -130 -162 -161 -133 130 163 164 133 130 161 162 131 -131 -163 vhcurveto
          -373 -76 rmoveto
          -52 42 -36 49 16 34 8 4 13 vhcurveto
          4 -11 1 -1 3 -10 rrcurveto
          hintmask 01101100
          0 -49 -14 -22 -63 -52 46 66 vhcurveto
          165 vlineto
          65 51 46 63 26 31 -12 -4 11 vhcurveto
          -5 -20 rlineto
          0 -40 11 -23 -49 -41 -35 -51 vhcurveto
          endchar
        </CharString>
        <CharString name="d">
          -11 -9 63 392 63 185 -20 -38 callsubr
          85 rmoveto
          -18 -12 -70 -13 -23 hhcurveto
          -40 -33 35 42 hvcurveto
          237 vlineto
          43 33 35 41 20 44 -8 -24 40 vhcurveto
          1 71 rmoveto
          22 -46 -39 2 -20 hhcurveto
          -76 -60 -65 -79 hvcurveto
          -230 vlineto
          -80 60 -64 76 26 51 7 20 40 vhcurveto
          30 -30 45 44 -25 24 rlineto
          638 -62 vlineto
          endchar
        </CharString>
        <CharString name="degree">
          -98 448 60 139 58 hstem
          36 58 141 58 vstem
          293 577 rmoveto
          72 -57 56 -72 -70 -58 -57 -71 -70 58 -59 70 72 57 59 70 vhcurveto
          -58 hmoveto
          -38 -32 -31 -39 -38 -32 31 38 39 32 31 38 39 32 -31 -39 vhcurveto
          endchar
        </CharString>
        <CharString name="dieresis">
          24 584 88 hstem
          98 70 122 70 vstem
          360 584 -95 callsubr
        </CharString>
        <CharString name="divide">
          18 1 99 72 76 64 101 hstemhm
          189 81 hintmask 10110000
          270 -69 callsubr
          hintmask 01000000
          208 171 -64 callsubr
          endchar
        </CharString>
        <CharString name="dollar">
          46 -50 -21 828 -20 hstem
          46 71 82 67 98 70 vstem
          199 690 rmoveto
          -88 -17 -65 -83 -97 vvcurveto
          -108 86 -77 108 61 63 -38 -74 -73 -53 -54 -69 -26 -12 3 60 -137 vhcurveto
          -23 -65 25 -13 71 -30 59 -19 rlinecurve
          -76 67 72 vlineto
          96 12 72 80 104 vvcurveto
          109 -87 76 -107 -62 -61 38 76 67 48 60 67 32 49 -23 -15 31 vhcurveto
          24 -11 22 68 -89 36 -10 4 -11 4 -14 3 rlinecurve
          68 -67 vlineto
          endchar
        </CharString>
        <CharString name="dotaccent">
          -219 endchar
        </CharString>
        <CharString name="e">
          -74 callsubr
          117 249 -66 callsubr
          -42 -33 -39 -41 vhcurveto
          -175 -98 rmoveto
          -93 74 -66 88 14 136 27 0 vhcurveto
          -16 66 rlineto
          0 -127 -30 -7 -81 callsubr
          -33 hlineto
          -78 -62 -64 -81 hvcurveto
          endchar
        </CharString>
        <CharString name="eacute">
          -70 callsubr
          63 -76 callsubr
          52 65 184 64 hintmask 10011110
          -100 callsubr
          hintmask 01100000
          299 581 -90 callsubr
        </CharString>
        <CharString name="ecircumflex">
          -74 callsubr
          -100 callsubr
          289 459 -99 callsubr
        </CharString>
        <CharString name="edieresis">
          -19 -18 0 101 -24 callsubr
        </CharString>
        <CharString name="egrave">
          -19 -17 0 101 193 endchar
        </CharString>
        <CharString name="eight">
          6 -9 61 228 79 230 62 hstem
          64 63 179 63 vstem
          201 52 rmoveto
          -41 -33 36 43 hvcurveto
          74 vlineto
          53 41 22 47 48 43 -24 -51 vhcurveto
          -74 vlineto
          -43 -33 -36 -41 vhcurveto
          -31 307 rmoveto
          -41 -33 36 44 hvcurveto
          76 vlineto
          56 45 18 50 44 40 -27 -47 vhcurveto
          -76 vlineto
          -44 -33 -36 -41 vhcurveto
          -168 -148 rmoveto
          -83 vlineto
          -74 57 -63 72 vhcurveto
          47 hlineto
          72 57 63 74 hvcurveto
          83 vlineto
          50 -25 37 -37 22 vhcurveto
          39 23 23 41 52 vvcurveto
          83 vlineto
          82 -68 50 -77 -84 -76 -34 -98 vhcurveto
          -83 vlineto
          -49 23 -41 36 -25 vhcurveto
          -36 -21 -23 -41 -48 vvcurveto
          endchar
        </CharString>
        <CharString name="ellipsis">
          75 5 99 hstem
          54 81 76 81 75 -47 callsubr
          238 hmoveto
          -52 callsubr
          237 hmoveto
          -52 callsubr
          endchar
        </CharString>
        <CharString name="emdash">
          306 203 66 hstem
          671 203 rmoveto
          66 -611 -66 vlineto
          endchar
        </CharString>
        <CharString name="endash">
          43 203 66 hstem
          408 203 rmoveto
          66 -347 -66 vlineto
          endchar
        </CharString>
        <CharString name="equal">
          52 170 76 114 76 hstem
          413 360 -64 callsubr
          347 -190 -64 callsubr
          endchar
        </CharString>
        <CharString name="exclam">
          -50 callsubr
          130 137 rmoveto
          558 -64 -558 vlineto
          64 -136 rmoveto
          101 -65 -101 vlineto
          endchar
        </CharString>
        <CharString name="exclamdown">
          -50 callsubr
          66 558 rmoveto
          -557 64 557 vlineto
          -65 137 rmoveto
          -102 65 102 vlineto
          endchar
        </CharString>
        <CharString name="f">
          -135 21 -21 439 61 137 66 hstem
          110 66 vstem
          176 439 rmoveto
          92 61 -93 -79 callsubr
          vlineto
          endchar
        </CharString>
        <CharString name="fi">
          37 21 -21 439 -39 callsubr
          65 162 65 hintmask 11011100
          338 605 rmoveto
          65 90 -65 hlineto
          -163 -119 rmoveto
          47 30 14 32 vhcurveto
          20 66 hlineto
          hintmask 11101100
          -25 hlineto
          -68 -52 -39 -95 hvcurveto
          -69 -87 -61 86 -439 65 439 162 -439 65 500 -228 vlineto
          endchar
        </CharString>
        <CharString name="five">
          0 -8 71 294 66 159 64 hstem
          62 71 182 68 vstem
          383 196 rmoveto
          29 vlineto
          113 -55 85 -108 vhcurveto
          -87 159 196 64 -267 -289 157 hlineto
          67 29 -60 -72 hvcurveto
          -29 vlineto
          -71 -28 -62 -67 -51 -89 38 0 vhcurveto
          -20 -62 rlineto
          -1 107 -46 55 107 54 93 111 vhcurveto
          endchar
        </CharString>
        <CharString name="fl">
          61 1 66 -47 -21 440 -39 callsubr
          66 161 64 hintmask 01110110
          337 135 rmoveto
          -31 callsubr
          24 66 hlineto
          hintmask 01101110
          -19 hlineto
          -33 -29 15 48 hvcurveto
          565 vlineto
          hintmask 10110110
          -64 -195 -162 -79 callsubr
          439 161 vlineto
          endchar
        </CharString>
        <CharString name="four">
          -31 21 -21 190 66 390 -20 hstem
          277 66 vstem
          343 hmoveto
          367 -66 -111 -173 vlineto
          144 390 rlineto
          -68 hlineto
          -149 -390 rlineto
          -66 246 -190 vlineto
          endchar
        </CharString>
        <CharString name="fraction">
          -203 22 -21 693 -20 hstem
          26 -55 callsubr
        </CharString>
        <CharString name="g">
          -8 -252 60 183 63 392 64 hstem
          53 63 178 63 vstem
          294 85 rmoveto
          -31 -65 -18 0 -21 hhcurveto
          -41 -33 35 43 hvcurveto
          238 vlineto
          41 33 35 40 22 33 -3 -27 50 vhcurveto
          63 29 rmoveto
          24 23 -45 45 -31 -31 rlineto
          19 -45 -41 9 -29 hhcurveto
          -76 -61 -64 -80 hvcurveto
          -231 vlineto
          -79 61 -65 76 vhcurveto
          10 hlineto
          22 30 0 21 43 hvcurveto
          -120 vlineto
          -55 -45 -29 -52 -26 -103 32 0 vhcurveto
          -18 -59 rlineto
          0 105 -33 42 87 72 44 101 vhcurveto
          endchar
        </CharString>
        <CharString name="germandbls">
          76 0 66 285 66 222 66 hstemhm
          61 67 239 67 -42 68 hintmask 11110100
          460 188 rmoveto
          44 vlineto
          40 -13 80 -76 36 vhcurveto
          hintmask 11111000
          44 24 19 56 50 vvcurveto
          61 -30 126 -155 -157 -31 -125 -60 vhcurveto
          -520 67 518 vlineto
          105 78 16 43 42 76 -16 -105 -62 -28 -39 -55 vhcurveto
          -32 -66 30 hlineto
          hintmask 11110100
          42 68 -16 -105 hvcurveto
          -42 vlineto
          -104 -76 -18 -43 vhcurveto
          -56 -66 58 hlineto
          154 31 125 63 hvcurveto
          endchar
        </CharString>
        <CharString name="grave">
          -63 573 -21 100 -20 hstem
          266 573 -93 callsubr
        </CharString>
        <CharString name="greater">
          61 190 -21 270 -20 hstem
          68 236 rmoveto
          -67 vlineto
          370 90 rlineto
          94 vlineto
          -370 86 rlineto
          -68 vlineto
          167 -36 rlineto
          -1 hlineto
          124 -28 rlineto
          -7 vlineto
          -44 -10 -28 -6 -33 -6 -20 -5 rlinecurve
          1 hlineto
          endchar
        </CharString>
        <CharString name="h">
          -4 21 -21 446 64 185 -20 hstem
          61 63 179 62 vstem
          365 hmoveto
          366 vlineto
          79 -61 65 -75 -21 -34 2 -26 -50 vhcurveto
          209 -63 -695 63 415 vlineto
          25 37 46 6 22 hhcurveto
          40 34 -35 -42 hvcurveto
          -369 vlineto
          endchar
        </CharString>
        <CharString name="hyphen">
          -64 314 76 hstem
          305 314 rmoveto
          76 -247 -76 vlineto
          endchar
        </CharString>
        <CharString name="i">
          -239 -75 callsubr
          215 -20 hstem
          61 66 vstem
          61 605 rmoveto
          66 90 -66 hlineto
          -695 vmoveto
          66 500 -66 hlineto
          endchar
        </CharString>
        <CharString name="iacute">
          -239 -57 callsubr
          66 hintmask 00111100
          61 500 rmoveto
          66 -500 -66 hlineto
          hintmask 11000000
          180 738 -90 callsubr
        </CharString>
        <CharString name="icircumflex">
          -239 -102 0 105 -23 callsubr
        </CharString>
        <CharString name="idieresis">
          -240 -75 callsubr
          215 -20 hstem
          61 65 vstem
          -40 callsubr
          167 591 -95 callsubr
        </CharString>
        <CharString name="igrave">
          -240 -57 callsubr
          65 hintmask 00111100
          -40 callsubr
          hintmask 11000000
          69 580 -93 callsubr
        </CharString>
        <CharString name="j">
          -239 -237 66 672 -20 213 -20 hstem
          60 67 vstem
          63 -108 rmoveto
          -45 -2 -28 -18 -32 hhcurveto
          -20 -66 24 hlineto
          69 53 39 95 hvcurveto
          604 -67 vlineto
          107 vmoveto
          67 86 -67 hlineto
          endchar
        </CharString>
        <CharString name="k">
          -89 21 -21 695 -20 hstem
          61 63 vstem
          319 hmoveto
          -124 268 123 231 rlineto
          -70 hlineto
          -104 -194 rlineto
          -20 390 -63 -695 63 232 21 hlineto
          104 -232 rlineto
          endchar
        </CharString>
        <CharString name="l">
          -209 1 66 628 -20 hstem
          67 64 vstem
          67 135 rmoveto
          -95 52 -39 68 vhcurveto
          25 66 -20 hlineto
          -33 -28 15 48 hvcurveto
          565 -64 vlineto
          endchar
        </CharString>
        <CharString name="less">
          60 185 -21 270 -20 hstem
          254 268 rmoveto
          -20 5 -34 6 -28 6 rrcurveto
          1 hlineto
          -21 5 -16 4 -7 1 rrcurveto
          8 vlineto
          0 85 18 39 9 vhcurveto
          -1 hlineto
          167 36 rlineto
          68 vlineto
          -369 -86 rlineto
          -94 vlineto
          369 -90 rlineto
          68 vlineto
          endchar
        </CharString>
        <CharString name="lslash">
          -49 1 66 136 66 426 -20 hstem
          124 64 vstem
          370 203 rmoveto
          66 -182 426 -64 -426 -101 -66 101 -68 vlineto
          -31 callsubr
          24 66 -19 hlineto
          -34 -28 15 48 hvcurveto
          73 vlineto
          endchar
        </CharString>
        <CharString name="m">
          253 21 -21 510 -20 hstem
          62 63 185 64 185 64 vstem
          310 hmoveto
          64 321 hlineto
          79 34 46 76 57 18 -49 -45 vhcurveto
          -352 64 352 vlineto
          64 -37 94 -99 -46 -56 -14 -54 -39 vhcurveto
          45 -24 -54 23 -55 hhcurveto
          -33 -34 -11 -18 -34 hvcurveto
          -30 31 -45 -44 25 -24 rlineto
          -444 63 415 vlineto
          16 23 49 15 22 hhcurveto
          45 46 -32 -41 hvcurveto
          endchar
        </CharString>
        <CharString name="minus">
          52 244 76 hstem
          413 244 -64 callsubr
          endchar
        </CharString>
        <CharString name="mu">
          15 -181 -21 194 62 446 -20 22 -20 hstemhm
          69 63 186 63 hintmask 11101100
          132 -202 rmoveto
          218 vlineto
          -18 25 29 -6 28 -104 callsubr
          vlineto
          hintmask 11011100
          -63 2 -1 -323 rlineto
          -14 0 -18 1 -12 vhcurveto
          -337 vlineto
          endchar
        </CharString>
        <CharString name="multiply">
          29 114 -21 353 -20 hstem
          404 137 rmoveto
          -132 132 132 133 -43 44 -133 -133 -132 133 -44 -44 133 -133 -133 -132 44 -44 132 133 133 -133 rlineto
          endchar
        </CharString>
        <CharString name="n">
          4 21 -21 447 62 hstem
          62 63 184 65 vstem
          -91 callsubr
          endchar
        </CharString>
        <CharString name="nine">
          -1 -11 62 190 63 285 63 hstem
          56 63 179 62 vstem
          192 304 rmoveto
          -27 callsubr
          134 vlineto
          56 44 17 50 43 40 -26 -47 vhcurveto
          -134 vlineto
          -26 callsubr
          -31 348 rmoveto
          -76 -60 -61 -79 hvcurveto
          -127 vlineto
          -79 60 -65 76 22 53 4 18 31 vhcurveto
          -119 vlineto
          -56 -44 -37 -52 -7 -122 31 0 vhcurveto
          -18 -60 rlineto
          0 132 -33 15 87 71 65 90 vhcurveto
          368 vlineto
          79 -61 61 -75 vhcurveto
          endchar
        </CharString>
        <CharString name="ntilde">
          4 21 -21 447 62 80 62 hstemhm
          62 63 184 65 hintmask 11011000
          -91 callsubr
          -303 226 -65 callsubr
        </CharString>
        <CharString name="o">
          -45 callsubr
          hstem
          -29 callsubr
          vstem
          306 147 rmoveto
          -79 -65 -13 -32 -33 -66 13 -36 callsubr
          33 32 65 -11 -79 vhcurveto
          58 7 rmoveto
          125 -105 20 -50 -51 -105 -44 callsubr
          105 -21 51 50 105 21 125 vhcurveto
          endchar
        </CharString>
        <CharString name="oacute">
          -10 -26 0 111 -25 callsubr
        </CharString>
        <CharString name="ocircumflex">
          -45 callsubr
          hstem
          -29 callsubr
          vstem
          -92 callsubr
          -19 244 -99 callsubr
        </CharString>
        <CharString name="odieresis">
          -10 -22 0 111 -24 callsubr
        </CharString>
        <CharString name="oe">
          235 -9 63 -62 62 126 68 198 62 -62 64 hstemhm
          53 58 195 59 -59 65 183 65 hintmask 0111011010000000
          306 145 rmoveto
          -79 -65 -12 -32 -32 -66 12 -36 callsubr
          32 32 65 -11 -79 vhcurveto
          59 7 rmoveto
          125 -105 20 -51 -50 -106 -44 callsubr
          106 -21 50 51 105 21 125 vhcurveto
          6 111 rmoveto
          hintmask 1010110110000000
          121 vlineto
          47 40 29 46 51 46 -19 -57 vhcurveto
          -41 vlineto
          -42 -32 -39 -42 vhcurveto
          -174 -98 rmoveto
          -93 74 -66 88 33 117 27 0 vhcurveto
          -16 65 rlineto
          0 -111 -29 -23 -81 callsubr
          -34 hlineto
          -77 -62 -64 -81 hvcurveto
          endchar
        </CharString>
        <CharString name="ograve">
          -45 callsubr
          63 -76 callsubr
          -29 callsubr
          hintmask 00111100
          -92 callsubr
          hintmask 11000000
          -119 208 -93 callsubr
        </CharString>
        <CharString name="one">
          22 -21 645 -20 hstem
          75 66 vstem
          75 1 rmoveto
          66 649 hlineto
          -66 -33 rlineto
          endchar
        </CharString>
        <CharString name="oslash">
          -10 76 -90 111 47 endchar
        </CharString>
        <CharString name="otilde">
          -10 -37 0 111 196 endchar
        </CharString>
        <CharString name="p">
          -8 -32 callsubr
          64 hstem
          63 63 178 62 vstem
          126 414 rmoveto
          25 36 47 7 22 hhcurveto
          40 33 -35 -41 hvcurveto
          -239 vlineto
          -42 -33 -35 -41 -20 -54 13 18 -30 vhcurveto
          -1 -71 rmoveto
          -22 46 40 -2 19 hhcurveto
          76 60 65 79 hvcurveto
          232 vlineto
          80 -60 64 -76 -28 -46 -8 -20 -42 vhcurveto
          -32 31 -43 -45 24 -23 rlineto
          -688 62 vlineto
          endchar
        </CharString>
        <CharString name="parenleft">
          -190 -48 66 659 66 hstemhm
          58 65 -65 146 hintmask 11010000
          58 87 rmoveto
          -96 53 -39 69 vhcurveto
          24 hlineto
          hintmask 11100000
          66 -20 vlineto
          -33 -28 15 49 hvcurveto
          hintmask 11010000
          532 vlineto
          48 28 15 33 vhcurveto
          20 66 -24 hlineto
          -69 -53 -39 -95 hvcurveto
          endchar
        </CharString>
        <CharString name="parenright">
          -190 -49 67 659 66 hstemhm
          33 145 vstemhm
          178 86 rmoveto
          1 523 rlineto
          95 -54 39 -68 vhcurveto
          -24 -66 19 hlineto
          33 29 -15 -48 hvcurveto
          hintmask 11100000
          -1 -533 rlineto
          -49 -29 -14 -33 vhcurveto
          -19 -67 24 hlineto
          68 54 39 96 hvcurveto
          endchar
        </CharString>
        <CharString name="period">
          -238 5 99 hstem
          54 -47 callsubr
          endchar
        </CharString>
        <CharString name="plus">
          3 116 -21 134 76 134 -20 hstem
          177 76 vstem
          387 305 rmoveto
          -134 134 -76 -134 -134 -76 134 -134 76 134 134 hlineto
          endchar
        </CharString>
        <CharString name="q">
          -10 -32 callsubr
          63 -38 callsubr
          84 rmoveto
          -23 -31 -53 -7 -20 hhcurveto
          -41 -33 35 42 hvcurveto
          238 vlineto
          42 33 35 40 23 35 -2 -31 47 vhcurveto
          1 -401 rmoveto
          -255 62 687 vlineto
          24 23 -43 45 -32 -30 rlineto
          19 -42 -47 8 -27 hhcurveto
          -76 -60 -64 -80 hvcurveto
          -231 vlineto
          -79 63 -65 76 vhcurveto
          9 hlineto
          21 1 29 1 34 16 rrcurveto
          endchar
        </CharString>
        <CharString name="question">
          1 0 101 532 71 hstemhm
          125 81 -77 70 122 69 hintmask 11101000
          192 14 rmoveto
          74 -54 -74 vlineto
          252 517 rmoveto
          103 -89 70 -98 -23 -37 -8 -9 -22 vhcurveto
          -88 -36 23 -66 102 38 rlineto
          5 15 17 5 14 hhcurveto
          44 73 -39 -64 -21 -16 -28 -15 -21 hvcurveto
          -43 -65 -46 -68 -43 -65 rrcurveto
          -15 -23 -14 -30 -47 vvcurveto
          -26 70 vlineto
          hintmask 11011000
          27 vlineto
          27 10 18 12 18 vhcurveto
          139 209 rlineto
          15 23 15 29 44 vvcurveto
          endchar
        </CharString>
        <CharString name="questiondown">
          -36 -227 44 546 101 hstem
          34 42 129 81 vstem
          205 464 rmoveto
          -101 81 101 vlineto
          -252 -531 rmoveto
          39 14 28 14 21 vhcurveto
          139 210 rlineto
          13 18 12 21 31 vvcurveto
          13 42 -12 vlineto
          -44 -12 -26 -15 -22 vhcurveto
          -43 -65 -46 -68 -43 -65 rrcurveto
          -16 -23 -17 -30 -25 vvcurveto
          -72 81 -45 50 18 16 5 6 16 vhcurveto
          88 34 15 -39 -76 -32 rlineto
          -9 -22 -35 -9 -19 hhcurveto
          -90 -84 65 95 hvcurveto
          endchar
        </CharString>
        <CharString name="quotedbl">
          -113 -54 callsubr
          76 70 58 70 vstem
          274 -86 callsubr
          -22 -11 vhcurveto
          19 -46 callsubr
        </CharString>
        <CharString name="quotedblleft">
          -107 517 -30 callsubr
          46 70 57 71 vstem
          46 554 rmoveto
          -58 70 57 vlineto
          44 21 21 22 10 vhcurveto
          -20 70 rlineto
          -56 -23 -37 -47 -74 vvcurveto
          127 hmoveto
          -58 71 57 vlineto
          44 20 21 22 10 vhcurveto
          -19 70 rlineto
          -57 -23 -37 -47 -74 vvcurveto
          endchar
        </CharString>
        <CharString name="quotedblright">
          -112 -54 callsubr
          77 70 58 70 vstem
          275 -86 callsubr
          -23 -11 vhcurveto
          20 -46 callsubr
        </CharString>
        <CharString name="quotesinglbase">
          -234 320 -30 callsubr
          80 71 vstem
          151 444 rmoveto
          57 -71 -56 vlineto
          -45 -72 callsubr
        </CharString>
        <CharString name="quotesingle">
          -240 -54 callsubr
          76 71 vstem
          147 637 rmoveto
          58 -71 -57 vlineto
          -45 -20 -80 callsubr
          endchar
        </CharString>
        <CharString name="r">
          -95 22 -21 443 66 hstem
          64 62 vstem
          329 466 rmoveto
          35 -62 -29 9 -26 hhcurveto
          -25 -36 -4 -31 -38 hvcurveto
          -34 33 -44 -45 7 -8 14 -12 8 -8 rlinecurve
          -434 62 407 vlineto
          28 32 33 8 19 hhcurveto
          25 12 -1 -30 47 hvcurveto
          endchar
        </CharString>
        <CharString name="registered">
          364 -6 62 286 190 21 153 -62 62 hstemhm
          40 62 216 170 21 242 -62 62 hintmask 11011101
          751 350 rmoveto
          197 -159 159 -196 -197 -159 -159 -197 -196 159 -160 197 196 159 -43 callsubr
          -132 -131 -161 -162 -132 131 163 164 132 130 162 161 132 -130 -164 vhcurveto
          -299 182 rmoveto
          -29 -43 -16 0 hvcurveto
          -174 72 vlineto
          58 40 37 65 65 -40 23 -58 hvcurveto
          53 -209 rmoveto
          68 -166 rlineto
          -20 hlineto
          -71 169 rlineto
          -4 -14 -6 0 -6 hhcurveto
          -76 -165 -17 376 hlineto
          hintmask 11101110
          0 51 20 43 59 55 -39 -70 -49 -26 -49 -37 -14 vhcurveto
          endchar
        </CharString>
        <CharString name="s">
          -105 callsubr
          endchar
        </CharString>
        <CharString name="scaron">
          -105 callsubr
          -293 602 -89 callsubr
        </CharString>
        <CharString name="semicolon">
          -209 -72 -21 405 101 hstem
          74 80 vstem
          154 52 rmoveto
          57 -80 -56 vlineto
          -44 -25 -24 -23 -10 vhcurveto
          37 -68 rlineto
          55 23 36 46 76 vvcurveto
          260 vmoveto
          101 -80 -101 vlineto
          endchar
        </CharString>
        <CharString name="seven">
          -64 21 -21 583 63 hstem
          33 583 rmoveto
          228 hlineto
          -182 -583 rlineto
          70 hlineto
          182 574 rlineto
          72 -298 vlineto
          endchar
        </CharString>
        <CharString name="six">
          -8 -7 61 298 63 175 62 hstem
          66 61 179 64 vstem
          233 352 rmoveto
          40 33 -35 -43 hvcurveto
          -145 vlineto
          -53 -41 -22 -46 -48 -42 25 50 vhcurveto
          145 vlineto
          43 33 35 40 vhcurveto
          31 -359 rmoveto
          76 61 61 79 hvcurveto
          138 vlineto
          79 -61 65 -76 -17 -53 0 -22 -36 vhcurveto
          104 vlineto
          57 45 36 52 6 76 -19 0 vhcurveto
          18 59 rlineto
          0 -86 22 -14 -88 -70 -64 -91 vhcurveto
          -364 vlineto
          -79 60 -61 75 vhcurveto
          endchar
        </CharString>
        <CharString name="slash">
          -163 22 -21 693 -20 hstem
          46 -55 callsubr
        </CharString>
        <CharString name="space">
          -223 endchar
        </CharString>
        <CharString name="sterling">
          76 0 68 441 76 110 -20 hstem
          84 69 vstem
          457 512 rmoveto
          112 -79 79 -110 -113 -71 -77 -108 vhcurveto
          -133 -38 -71 38 -314 372 66 -305 248 215 71 -215 135 vlineto
          96 67 21 49 45 78 -18 -107 vhcurveto
          endchar
        </CharString>
        <CharString name="t">
          -151 -1 66 374 62 194 -20 hstemhm
          101 65 -65 154 hintmask 11110000
          101 133 rmoveto
          -31 callsubr
          33 hlineto
          hintmask 11101000
          66 -28 vlineto
          -33 -28 15 48 hvcurveto
          hintmask 11110000
          311 89 vlineto
          62 -89 194 -65 -194 -83 -62 83 vlineto
          endchar
        </CharString>
        <CharString name="thorn">
          -9 36 -20 61 298 94 226 hstem
          48 75 35 15 vstem
          121 81 rmoveto
          -1 1 1 -1 2 hhcurveto
          -4 vlineto
          340 vmoveto
          20 29 47 11 28 hhcurveto
          41 33 -35 -43 -37 callsubr
          -39 -32 7 18 -34 vhcurveto
          -1 615 rmoveto
          -62 hlineto
          -1 -937 rlineto
          62 257 hlineto
          -19 42 38 -3 26 hhcurveto
          76 60 63 -41 callsubr
          -20 -36 0 -24 -49 vhcurveto
          endchar
        </CharString>
        <CharString name="three">
          -13 -10 64 251 62 219 66 hstem
          292 62 vstem
          70 542 rmoveto
          77 35 rlineto
          5 12 21 4 13 hhcurveto
          45 51 -43 -66 3 hvcurveto
          -65 -1 -27 -45 -71 hhcurveto
          -63 -62 62 hlineto
          71 28 -58 -65 1 hvcurveto
          -66 -3 -42 -62 -60 hhcurveto
          -11 -14 4 5 -13 hvcurveto
          -1 vlineto
          -87 37 -18 -66 73 -28 20 -8 31 -6 21 -1 rlinecurve
          94 1 71 83 104 vvcurveto
          53 -4 58 -55 45 vhcurveto
          48 42 12 38 54 vvcurveto
          104 -63 78 -96 2 vhcurveto
          -18 -40 -9 -9 -20 hvcurveto
          1 vlineto
          -75 -30 rlineto
          endchar
        </CharString>
        <CharString name="tilde">
          70 589 62 hstem
          90 651 rmoveto
          31 -62 rlineto
          278 hlineto
          -28 62 rlineto
          endchar
        </CharString>
        <CharString name="trademark">
          117 20 -21 398 -21 250 69 0 -20 hstem
          262 695 rmoveto
          -319 36 232 vlineto
          44 -142 rlineto
          48 hlineto
          13 44 17 50 15 46 rrcurveto
          -230 37 319 -51 vlineto
          -16 -58 -22 -65 -17 -58 -54 181 rcurveline
          -103 -14 rmoveto
          -10 -70 -281 -10 281 -72 10 vlineto
          endchar
        </CharString>
        <CharString name="two">
          -28 0 68 517 67 hstem
          282 66 vstem
          62 72 rmoveto
          -72 284 68 -208 vlineto
          0 103 150 70 120 vhcurveto
          30 41 7 38 46 vvcurveto
          104 -71 84 -94 1 vhcurveto
          -20 -1 -32 -6 -20 -9 -80 -32 rcurveline
          27 -63 rlineto
          39 94 17 5 12 hhcurveto
          60 38 -59 -66 3 hvcurveto
          -1 -35 -7 -29 -20 -29 rrcurveto
          endchar
        </CharString>
        <CharString name="u">
          -94 callsubr
          endchar
        </CharString>
        <CharString name="uacute">
          3 -8 62 446 -20 93 -76 callsubr
          57 64 185 63 hintmask 00111100
          -106 callsubr
          hintmask 11000000
          272 655 -90 callsubr
        </CharString>
        <CharString name="ucircumflex">
          3 18 0 117 -23 callsubr
        </CharString>
        <CharString name="udieresis">
          -94 callsubr
          272 508 -95 callsubr
        </CharString>
        <CharString name="ugrave">
          3 -18 0 117 193 endchar
        </CharString>
        <CharString name="underscore">
          -223 endchar
        </CharString>
        <CharString name="v">
          -61 -75 callsubr
          hstem
          185 77 rmoveto
          0 -12 53 -90 370 vhcurveto
          -63 hlineto
          119 -500 rlineto
          94 hlineto
          113 500 rlineto
          -64 hlineto
          endchar
        </CharString>
        <CharString name="w">
          102 21 -21 499 -20 21 -20 hstemhm
          hintmask 11000000
          hintmask 10100000
          216 499 rmoveto
          -71 -424 -57 425 rlineto
          -62 hlineto
          80 -500 rlineto
          82 hlineto
          26 137 24 146 25 138 76 -421 rcurveline
          84 hlineto
          80 500 rlineto
          hintmask 11000000
          -63 hlineto
          -61 -425 -67 424 rlineto
          endchar
        </CharString>
        <CharString name="x">
          -67 -75 callsubr
          hstem
          181 214 rmoveto
          93 -213 rlineto
          65 hlineto
          -34 79 -37 89 -34 80 102 251 rcurveline
          -65 hlineto
          -30 -70 -31 -74 -30 -70 rrcurveto
          0 vlineto
          -95 214 rlineto
          -63 hlineto
          106 -251 -106 -249 rlineto
          63 hlineto
          92 214 rlineto
          endchar
        </CharString>
        <CharString name="y">
          -49 -222 -21 264 -21 500 -20 hstem
          180 -243 rmoveto
          11 79 16 85 12 79 rrcurveto
          6 hlineto
          134 500 rlineto
          -65 hlineto
          -74 -262 -28 -116 -4 -17 rrcurveto
          -1 hlineto
          0 -35 112 -69 283 vhcurveto
          -64 hlineto
          132 -500 rlineto
          5 hlineto
          -40 -243 rlineto
          endchar
        </CharString>
        <CharString name="yacute">
          -49 -48 0 121 -25 callsubr
        </CharString>
        <CharString name="ydieresis">
          -49 -40 0 121 -24 callsubr
        </CharString>
        <CharString name="yen">
          60 20 -21 171 76 114 76 259 -20 hstem
          209 72 vstem
          417 171 rmoveto
          76 -138 63 11 vlineto
          20 51 rlineto
          107 76 -75 hlineto
          107 259 rlineto
          -68 hlineto
          -134 -314 rlineto
          -8 hlineto
          -133 314 rlineto
          -68 hlineto
          34 -82 38 -95 35 -82 rrcurveto
          -75 -76 106 hlineto
          23 -51 rlineto
          8 -63 -137 -76 137 -170 72 170 hlineto
          endchar
        </CharString>
        <CharString name="z">
          -19 0 63 372 63 hstem
          379 63 rmoveto
          -263 8 hlineto
          246 367 rlineto
          60 -320 -63 238 -10 vlineto
          -246 -365 rlineto
          -60 345 vlineto
          endchar
        </CharString>
        <CharString name="zcaron">
          -19 11 0 122 207 endchar
        </CharString>
        <CharString name="zero">
          9 -9 65 529 66 hstem
          66 63 177 64 vstem
          202 56 rmoveto
          -27 callsubr
          377 vlineto
          56 44 18 50 43 40 -27 -47 vhcurveto
          -377 vlineto
          -26 callsubr
          137 455 rmoveto
          79 -61 -34 callsubr
          -79 hvcurveto
          -380 vlineto
          -79 59 -61 76 vhcurveto
          32 hlineto
          76 61 61 79 hvcurveto
          endchar
        </CharString>
</ttFont>
